<svg xmlns="http://www.w3.org/2000/svg" width="108" height="18"><path d="M.015 1.993h3.779v15.749h2.128V1.993h3.783V.243H.011v1.75zm13.827 7.5h5.2v-1.75h-5.2v-5.75h5.911V.243h-8.039v17.5h8.039v-1.75h-5.911v-6.5zm12.713-2.25l-2.6-7h-2.128l3.192 8.5-3.547 9H23.6l2.955-7.5 2.956 7.5h2.128l-3.547-9 3.192-8.5h-2.128zm14.241-7v7.749h-4.965V.243h-2.128v17.5h2.128v-8h4.963v8h2.128V.243h-2.128zm7.673.175a3.776 3.776 0 00-1.6 1.45 7.924 7.924 0 00-1 2.762 23.065 23.065 0 00-.343 4.362 23.061 23.061 0 00.343 4.362 7.917 7.917 0 001 2.762 3.772 3.772 0 001.6 1.45 5.6 5.6 0 004.279 0 3.772 3.772 0 001.6-1.45 7.957 7.957 0 001-2.762 23.144 23.144 0 00.343-4.362 23.149 23.149 0 00-.343-4.362 7.964 7.964 0 00-1-2.762 3.776 3.776 0 00-1.6-1.45 5.6 5.6 0 00-4.279.001zm1.025 15.749a2.61 2.61 0 01-.946-1.175 9.121 9.121 0 01-.65-2.3 22.666 22.666 0 01-.248-3.7 22.67 22.67 0 01.248-3.7 9.126 9.126 0 01.65-2.3 2.614 2.614 0 01.946-1.175 2.064 2.064 0 012.223 0 2.627 2.627 0 01.946 1.175 9.168 9.168 0 01.65 2.3 22.67 22.67 0 01.248 3.7 22.666 22.666 0 01-.248 3.7 9.164 9.164 0 01-.65 2.3 2.623 2.623 0 01-.946 1.175 2.064 2.064 0 01-2.223 0zm16.866-.675l3.434-10.749h.118l.71 13h2.128l-.946-17.5h-2.6l-3.854 12h-.095l-3.854-12h-2.6l-.945 17.5h2.128l.709-13h.118l3.429 10.749h2.128zm16.252-2.25l1.064 4.5h2.128L81.785.242h-3.071l-4.019 17.5h2.128l1.064-4.5h4.728zm-.354-1.75h-4.02l1.963-8.75h.093zm7.783-.625V1.618h1.655a4.037 4.037 0 011.384.212 2.02 2.02 0 01.957.738 3.628 3.628 0 01.557 1.425 11.945 11.945 0 01.177 2.25 11.944 11.944 0 01-.177 2.25 3.628 3.628 0 01-.556 1.425 2.016 2.016 0 01-.957.737 4.023 4.023 0 01-1.384.213h-1.653zm0 1.5a10.754 10.754 0 001.135.175 11.424 11.424 0 001.23.075 5.725 5.725 0 002-.313 3.053 3.053 0 001.4-1.05 5.056 5.056 0 00.827-1.962 14.393 14.393 0 00.272-3.05 13.128 13.128 0 00-.284-2.975 4.544 4.544 0 00-.9-1.925A3.389 3.389 0 0094.113.305a8.115 8.115 0 00-2.412-.312 16.124 16.124 0 00-1.974.113 10.644 10.644 0 00-1.809.387v17.249h2.128v-5.374zm8.25-10.375h3.783v15.75h2.128V1.993h3.783V.243h-9.691v1.75z" fill="#fff" fill-rule="evenodd"/></svg>